<svg xmlns="http://www.w3.org/2000/svg" viewBox="0 0 64 64">
  <!-- MSC favicon — keep in sync with src/components/shared/BrandMark.tsx -->
  <rect width="64" height="64" rx="15" fill="#1A6B72"/>
  <path d="M34 24 H44 A6 6 0 0 1 50 30 V36 A6 6 0 0 1 44 42 H42 L38 47 V42 H34 A6 6 0 0 1 28 36 V30 A6 6 0 0 1 34 24 Z" fill="#E8A020"/>
  <path d="M18 14 H34 A6 6 0 0 1 40 20 V28 A6 6 0 0 1 34 34 H26 L21 39 V34 H18 A6 6 0 0 1 12 28 V20 A6 6 0 0 1 18 14 Z" fill="#FFFFFF" stroke="#1A6B72" stroke-width="2" stroke-linejoin="round"/>
</svg>
